<?xml version="1.0" encoding="utf-8"?>
<!-- Generator: Adobe Illustrator 25.2.0, SVG Export Plug-In . SVG Version: 6.00 Build 0)  -->
<svg version="1.1" id="Layer_1" xmlns="http://www.w3.org/2000/svg" xmlns:xlink="http://www.w3.org/1999/xlink" x="0px" y="0px"
	 viewBox="0 0 390.12 390.58" style="enable-background:new 0 0 390.12 390.58;" xml:space="preserve">
<style type="text/css">
	.st0{display:none;fill:#FDFDFE;}
	.st1{fill:#2D16D6;}
</style>
<g>
	<path class="st0" d="M412.78,412.75c-143.08,0.01-286.17,0.01-429.27,0.02C-16.5,269.69-16.5,126.6-16.51-16.5
		c143.08-0.01,286.17-0.01,429.27-0.02C412.77,126.56,412.77,269.65,412.78,412.75z M390.07,196.06
		C392.74,89.64,303.12,1.51,198.21,0.02C89.79-1.52,1.1,87.84,0.01,193.08C-1.11,301.15,88.26,389.83,193.8,390.57
		C301.24,391.33,392.02,302.21,390.07,196.06z"/>
	<path class="st1" d="M390.07,196.06c1.95,106.15-88.82,195.27-196.27,194.51C88.26,389.83-1.11,301.15,0.01,193.08
		C1.1,87.84,89.79-1.52,198.21,0.02C303.12,1.51,392.74,89.64,390.07,196.06z M344.33,245.47c10.89-32.31,11.05-67.21,0.24-99.54
		C322.22,79.09,270.99,37.5,195.14,37.67c-93.9,0.21-157.28,63.42-157.45,157.42c-0.17,94.68,65,158.68,158.45,157.77
		C273.09,352.12,322.62,309.86,344.33,245.47z"/>
	<path class="st0" d="M337.48,127.38c19.97,43.9,19.84,94.08-0.32,137.89c-24.61,53.48-71.57,87.55-140.6,88.22
		c-93.45,0.91-158.62-63.1-158.45-157.77c0.17-94,63.56-157.21,157.45-157.42C263.87,38.14,312.22,71.85,337.48,127.38z
		 M171.74,318.75c25.51,0.66,39.22-17.01,30.43-31.18c-17.64-28.39-40.27-51.76-76.33-54.97c-27.07-2.42-43.56,19.83-31.74,44.06
		c4.87,9.98,13.44,20.98,23.09,25.21C136.86,310.49,158.4,314.83,171.74,318.75z M168.64,231.37c5.88-4.32,11.19-7.26,15.28-11.4
		c14.28-14.44,28.16-29.27,42.15-43.99c20.5-21.57,40.99-43.14,61.42-64.77c6.76-7.16,10.9-15.52,2.67-23.63
		c-8.72-8.6-17.22-4.39-24.57,3.26c-0.98,1.02-2,2-2.98,3.03c-28.29,29.81-56.59,59.6-84.84,89.44c-6.81,7.2-14.29,13.98-19.8,22.09
		c-2.66,3.92-3.11,11.04-1.5,15.65C157.83,224.95,163.59,227.33,168.64,231.37z M210.03,259.49c2.84-2.27,8.48-5.68,12.74-10.35
		c22.97-25.21,45.59-50.74,68.36-76.12c7.18-8,13.01-16.8,2.76-25.74c-10.27-8.96-18.32-1.63-25.34,6.17
		c-23.12,25.71-46.23,51.44-69.19,77.29c-2.77,3.12-5.47,6.77-6.74,10.66C189.55,250.77,196.89,259.93,210.03,259.49z M220.99,73.46
		c-5.55,3.97-10.75,6.47-14.31,10.45c-22.39,24.97-44.43,50.26-66.54,75.47c-6.6,7.53-9.87,16.06-1.34,23.7
		c8.42,7.55,16.66,3.89,23.41-3.72c13.18-14.84,26.31-29.71,39.39-44.63c9.96-11.37,20.46-22.36,29.36-34.51
		c3.01-4.11,3.56-11.73,2.1-16.85C231.98,79.57,225.84,77.21,220.99,73.46z M117.04,199.42c-1.85-25.92-3.53-51.85-5.63-77.76
		c-0.83-10.25-4.63-19.44-17.03-18.1c-11.28,1.22-13.77,10.18-13.06,20.06c1.85,25.92,3.69,51.85,5.89,77.74
		c0.86,10.2,4.54,19.54,16.98,18.14C115.36,218.24,117.85,209.35,117.04,199.42z M289.6,234.1c-24.22,12.41-47.35,23.74-69.74,36.38
		c-2.8,1.58-3.97,11.48-1.81,15.03c2.55,4.17,11.02,9.1,14.41,7.69c22.5-9.41,44.59-19.94,66.08-31.47
		c3.35-1.8,4.91-11.08,3.68-15.99C301.18,241.57,294.9,238.71,289.6,234.1z"/>
	<path class="st1" d="M191.2,318.87c-6.37,3.04-13.79,3.65-20.64,1.67c-13.44-3.89-22.85-19.27-38.92-27.08
		c-10.1-4.91-29.34-13.65-32.96-25.68c-9.44-31.38,21.58-51.18,44.2-62.21c36.74-17.94,60.85,0.24,82.87,63.09
		C231.28,284.48,208.84,310.46,191.2,318.87z"/>
	<path class="st1" d="M215.61,201.18c-4.36,4.14-12.91,2.94-17.34-1.12c-0.84-0.77-1.49-1.59-1.88-2.55
		c-1.65-4.07-2.66-9.82-1.34-13.27c3.13-8.13,7.65-16.81,12.81-23.06c14.53-17.62,26.89-34.74,46.32-64.25
		c0.68-1.03,1.46-1.98,2.18-2.98c5.36-7.51,15.28-15.81,24.71-6.46c7.15,7.08,5.91,17.49,0.28,24.73
		c-15.79,20.28-29.85,43.72-45.77,64.07c-10.2,13.05-4.81,5.52-15.26,19.72C218.96,197.86,217.37,199.51,215.61,201.18z"/>
	<path class="st1" d="M243.57,235.43c-1,0.77-4.47,2.67-5.72,2.62c-12.53-0.53-17.45-11.88-14.37-21.7
		c1.34-4.28,6.07-8.28,9.51-11.14c30.71-25.57,37.69-32.14,60.05-53.11c9.01-8.45,16.76-15.96,28.17-8.12
		c9.52,6.54,5.52,16.83-5.14,27.24c-24.22,23.66-35,28.35-60.97,54.33C251.16,229.49,246.78,232.97,243.57,235.43z"/>
	<path class="st1" d="M184.86,67.82c5.2-5.31,14.07-5.19,20.23-1.16c1.28,0.84,3.24,2.71,3.65,3.94c2.14,6.34,1.31,12.38,0.07,17.73
		c-8.5,36.6-3.86,14.73-8.4,30.71c-5.54,19.51-8.74,33.6-16.52,55.71c-3.7,10.53-11.54,16.42-21.65,9.83
		c-10.23-6.67-9.14-15.24-6.36-25.9c10.56-40.54,13.8-45.47,22.78-78.81C179.35,77.33,182.91,69.81,184.86,67.82z"/>
	<path class="st1" d="M114.69,187.36c3.66,10.36,1.47,24.13-9.53,28.51c-12.25,4.88-18.66-4.08-22.44-14.7
		c-9.62-26.99-0.59-22.1-9.87-49.21c-3.54-10.34-15.9-23.97-4.78-28.34c12.23-4.81,19.73,1.21,24.67,11.03
		C105.59,160.2,102.02,161.51,114.69,187.36z"/>
	<path class="st1" d="M312.16,254.03c-22.62,12.72-35.46,14.69-60.34,21.31c-3.64,0.97-11.03,1.09-13.71-3.51
		c-2.28-3.92-1.85-16.27,1.24-18.01c23.85-13.41,39.63-9.63,65.12-23.32c9.06-1.85,14.11,5.41,15.2,10.36
		C320.92,246.54,315.69,252.04,312.16,254.03z"/>
</g>
</svg>
